<svg width="783" height="64" viewBox="0 0 783 64" fill="none" xmlns="http://www.w3.org/2000/svg">
<g filter="url(#filter0_f_2_356)">
<path d="M16.4001 47.68H52.1601V59.12H4.00012V4.79999H50.8801V16.24H16.4001V26.24H47.9201V37.68H16.4001V47.68ZM71.4782 47.68H104.758V59.12H58.9982V4.79999H71.4782V47.68ZM123.407 59.12H111.967V4.79999H123.407V59.12ZM185.863 42.56C185.863 53.68 175.863 59.84 159.143 59.84C142.503 59.84 132.503 53.52 131.303 41.84H143.703C143.943 45.36 148.023 48.48 159.063 48.48C172.423 48.48 173.623 44.32 173.623 42.24C173.623 31.36 133.623 42.32 133.623 19.36C133.623 10.88 142.343 3.99999 158.263 3.99999C176.263 3.99999 183.303 11.12 184.663 19.44H172.183C172.183 17.44 169.703 14.56 158.823 14.56C147.703 14.56 146.023 17.44 146.023 19.44C146.023 29.12 185.863 19.28 185.863 42.56ZM237.759 59.12L232.639 47.92H205.199L200.159 59.12H187.439L212.559 4.79999H225.279L250.479 59.12H237.759ZM210.079 37.28H227.839L218.959 17.76L210.079 37.28ZM353.274 59.12H337.914L318.954 37.68L309.994 47.12V59.12H297.514V4.79999H309.994V31.36L334.554 4.79999H349.274L326.714 29.2L353.274 59.12ZM406.821 59.12L401.701 47.92H374.261L369.221 59.12H356.501L381.621 4.79999H394.341L419.541 59.12H406.821ZM379.141 37.28H396.901L388.021 17.76L379.141 37.28ZM469.311 4.79999H481.791V59.12H469.311V37.68H438.431V59.12H426.031V4.79999H438.431V26.24H469.311V4.79999ZM545.98 59.12H530.62L512.46 38.32H503.82V59.12H491.42V4.71999H527.66C538.86 4.71999 544.46 12.24 544.46 21.52C544.46 30.8 538.86 38.32 527.66 38.32H527.42L545.98 59.12ZM503.82 16.08V26.88H526.62C530.62 26.88 532.06 24.48 532.06 21.52C532.06 18.56 530.62 16.08 526.62 16.08H503.82ZM600.728 59.12L595.608 47.92H568.168L563.128 59.12H550.408L575.528 4.79999H588.248L613.448 59.12H600.728ZM573.048 37.28H590.808L581.928 17.76L573.048 37.28ZM651.458 4.79999H664.258V59.12H651.778V26.16L638.898 47.68H629.058L616.258 26.24V59.12H603.858V4.79999H616.578L634.018 34.64L651.458 4.79999ZM704.978 59.12L699.858 47.92H672.418L667.378 59.12H654.658L679.778 4.79999H692.498L717.698 59.12H704.978ZM677.298 37.28H695.058L686.178 17.76L677.298 37.28ZM766.028 4.79999H778.508V59.12H765.788L736.588 23.36V59.12H724.108V4.79999H736.588H736.668L766.028 40.8V4.79999Z" fill="white"/>
</g>
<defs>
<filter id="filter0_f_2_356" x="0" y="0" width="782.508" height="63.84" filterUnits="userSpaceOnUse" color-interpolation-filters="sRGB">
<feFlood flood-opacity="0" result="BackgroundImageFix"/>
<feBlend mode="normal" in="SourceGraphic" in2="BackgroundImageFix" result="shape"/>
<feGaussianBlur stdDeviation="2" result="effect1_foregroundBlur_2_356"/>
</filter>
</defs>
</svg>
