<svg width="270" height="64" viewBox="0 0 270 64" fill="none" xmlns="http://www.w3.org/2000/svg">
<g filter="url(#filter0_f_2_354)">
<path d="M50.9602 16.16H16.4002V27.84H47.9202V39.28H16.4002V59.04H4.0002V4.72004H50.9602V16.16ZM88.0796 4.00004C109.84 4.00004 120.4 16.88 120.4 31.84C120.4 46.88 109.84 59.76 88.0796 59.76C66.3196 59.76 55.7596 46.88 55.7596 31.84C55.7596 16.88 66.3196 4.00004 88.0796 4.00004ZM88.0796 48.32C101.68 48.32 107.76 40.56 107.76 31.84C107.76 23.2 101.68 15.44 88.0796 15.44C73.5196 15.44 68.3996 23.2 68.3996 31.84C68.3996 40.56 73.5196 48.32 88.0796 48.32ZM140.855 47.6H174.135V59.04H128.375V4.72004H140.855V47.6ZM192.784 59.04H181.344V4.72004H192.784V59.04ZM233.08 4.00004C254.84 4.00004 265.4 16.88 265.4 31.84C265.4 46.88 254.84 59.76 233.08 59.76C211.32 59.76 200.76 46.88 200.76 31.84C200.76 16.88 211.32 4.00004 233.08 4.00004ZM233.08 48.32C246.68 48.32 252.76 40.56 252.76 31.84C252.76 23.2 246.68 15.44 233.08 15.44C218.52 15.44 213.4 23.2 213.4 31.84C213.4 40.56 218.52 48.32 233.08 48.32Z" fill="white"/>
</g>
<defs>
<filter id="filter0_f_2_354" x="0" y="0" width="269.399" height="63.76" filterUnits="userSpaceOnUse" color-interpolation-filters="sRGB">
<feFlood flood-opacity="0" result="BackgroundImageFix"/>
<feBlend mode="normal" in="SourceGraphic" in2="BackgroundImageFix" result="shape"/>
<feGaussianBlur stdDeviation="2" result="effect1_foregroundBlur_2_354"/>
</filter>
</defs>
</svg>
