<svg width="941" height="171" viewBox="0 0 941 171" fill="none" xmlns="http://www.w3.org/2000/svg">
<path d="M41.04 22.68C52.32 22.68 57.84 30.2 57.84 39.48C57.84 48.76 52.32 56.28 41.04 56.28H17.2V77H4.8V22.68H41.04ZM40.08 44.84C44 44.84 45.44 42.44 45.44 39.48C45.44 36.52 44 34.12 40.08 34.12H17.2V44.84H40.08ZM95.7544 21.96C117.514 21.96 128.074 34.84 128.074 49.8C128.074 64.84 117.514 77.72 95.7544 77.72C73.9944 77.72 63.4344 64.84 63.4344 49.8C63.4344 34.84 73.9944 21.96 95.7544 21.96ZM95.7544 66.28C109.354 66.28 115.434 58.52 115.434 49.8C115.434 41.16 109.354 33.4 95.7544 33.4C81.1944 33.4 76.0744 41.16 76.0744 49.8C76.0744 58.52 81.1944 66.28 95.7544 66.28ZM190.61 77H175.25L157.09 56.2H148.45V77H136.05V22.6H172.29C183.49 22.6 189.09 30.12 189.09 39.4C189.09 48.68 183.49 56.2 172.29 56.2H172.05L190.61 77ZM148.45 33.96V44.76H171.25C175.25 44.76 176.69 42.36 176.69 39.4C176.69 36.44 175.25 33.96 171.25 33.96H148.45ZM247.256 22.68V34.12H226.616V77H214.216V34.12H193.576V22.68H247.256Z" fill="white"/>
<g filter="url(#filter0_f_360_107)">
<path d="M289.012 34.12H254.452V45.8H285.972V57.24H254.452V77H242.052V22.68H289.012V34.12ZM326.131 21.96C347.891 21.96 358.451 34.84 358.451 49.8C358.451 64.84 347.891 77.72 326.131 77.72C304.371 77.72 293.811 64.84 293.811 49.8C293.811 34.84 304.371 21.96 326.131 21.96ZM326.131 66.28C339.731 66.28 345.811 58.52 345.811 49.8C345.811 41.16 339.731 33.4 326.131 33.4C311.571 33.4 306.451 41.16 306.451 49.8C306.451 58.52 311.571 66.28 326.131 66.28ZM378.907 65.56H412.187V77H366.427V22.68H378.907V65.56ZM430.836 77H419.396V22.68H430.836V77ZM471.131 21.96C492.891 21.96 503.451 34.84 503.451 49.8C503.451 64.84 492.891 77.72 471.131 77.72C449.371 77.72 438.811 64.84 438.811 49.8C438.811 34.84 449.371 21.96 471.131 21.96ZM471.131 66.28C484.731 66.28 490.811 58.52 490.811 49.8C490.811 41.16 484.731 33.4 471.131 33.4C456.571 33.4 451.451 41.16 451.451 49.8C451.451 58.52 456.571 66.28 471.131 66.28Z" fill="white"/>
</g>
<path d="M568.086 21.96C589.846 21.96 600.406 34.84 600.406 49.8C600.406 64.84 589.846 77.72 568.086 77.72C546.326 77.72 535.766 64.84 535.766 49.8C535.766 34.84 546.326 21.96 568.086 21.96ZM568.086 66.28C581.686 66.28 587.766 58.52 587.766 49.8C587.766 41.16 581.686 33.4 568.086 33.4C553.526 33.4 548.406 41.16 548.406 49.8C548.406 58.52 553.526 66.28 568.086 66.28ZM655.342 34.12H620.782V45.8H652.302V57.24H620.782V77H608.382V22.68H655.342V34.12Z" fill="white"/>
<g filter="url(#filter1_f_360_107)">
<path d="M17.28 142.56H53.04V154H4.88V99.68H51.76V111.12H17.28V121.12H48.8V132.56H17.28V142.56ZM72.3581 142.56H105.638V154H59.8781V99.68H72.3581V142.56ZM124.287 154H112.847V99.68H124.287V154ZM186.743 137.44C186.743 148.56 176.743 154.72 160.023 154.72C143.383 154.72 133.383 148.4 132.183 136.72H144.583C144.823 140.24 148.903 143.36 159.943 143.36C173.303 143.36 174.503 139.2 174.503 137.12C174.503 126.24 134.503 137.2 134.503 114.24C134.503 105.76 143.223 98.88 159.143 98.88C177.143 98.88 184.183 106 185.543 114.32H173.063C173.063 112.32 170.583 109.44 159.703 109.44C148.583 109.44 146.903 112.32 146.903 114.32C146.903 124 186.743 114.16 186.743 137.44ZM238.639 154L233.519 142.8H206.079L201.039 154H188.319L213.439 99.68H226.159L251.359 154H238.639ZM210.959 132.16H228.719L219.839 112.64L210.959 132.16ZM354.154 154H338.794L319.834 132.56L310.874 142V154H298.394V99.68H310.874V126.24L335.434 99.68H350.154L327.594 124.08L354.154 154ZM407.701 154L402.581 142.8H375.141L370.101 154H357.381L382.501 99.68H395.221L420.421 154H407.701ZM380.021 132.16H397.781L388.901 112.64L380.021 132.16ZM470.191 99.68H482.671V154H470.191V132.56H439.311V154H426.911V99.68H439.311V121.12H470.191V99.68ZM546.86 154H531.5L513.34 133.2H504.7V154H492.3V99.6H528.54C539.74 99.6 545.34 107.12 545.34 116.4C545.34 125.68 539.74 133.2 528.54 133.2H528.3L546.86 154ZM504.7 110.96V121.76H527.5C531.5 121.76 532.94 119.36 532.94 116.4C532.94 113.44 531.5 110.96 527.5 110.96H504.7ZM601.608 154L596.488 142.8H569.048L564.008 154H551.288L576.408 99.68H589.128L614.328 154H601.608ZM573.928 132.16H591.688L582.808 112.64L573.928 132.16ZM652.338 99.68H665.138V154H652.658V121.04L639.778 142.56H629.938L617.138 121.12V154H604.738V99.68H617.458L634.898 129.52L652.338 99.68ZM705.858 154L700.738 142.8H673.298L668.258 154H655.538L680.658 99.68H693.378L718.578 154H705.858ZM678.178 132.16H695.938L687.058 112.64L678.178 132.16ZM766.908 99.68H779.388V154H766.668L737.468 118.24V154H724.988V99.68H737.468H737.548L766.908 135.68V99.68Z" fill="white"/>
</g>
<defs>
<filter id="filter0_f_360_107" x="240.052" y="19.96" width="265.399" height="59.76" filterUnits="userSpaceOnUse" color-interpolation-filters="sRGB">
<feFlood flood-opacity="0" result="BackgroundImageFix"/>
<feBlend mode="normal" in="SourceGraphic" in2="BackgroundImageFix" result="shape"/>
<feGaussianBlur stdDeviation="1" result="effect1_foregroundBlur_360_107"/>
</filter>
<filter id="filter1_f_360_107" x="2.87988" y="96.88" width="778.508" height="59.84" filterUnits="userSpaceOnUse" color-interpolation-filters="sRGB">
<feFlood flood-opacity="0" result="BackgroundImageFix"/>
<feBlend mode="normal" in="SourceGraphic" in2="BackgroundImageFix" result="shape"/>
<feGaussianBlur stdDeviation="1" result="effect1_foregroundBlur_360_107"/>
</filter>
</defs>
</svg>
