<svg width="120" height="56" viewBox="0 0 120 56" fill="none" xmlns="http://www.w3.org/2000/svg">
<path d="M32.3198 3.71933e-05C54.0798 3.71933e-05 64.6398 12.88 64.6398 27.84C64.6398 42.88 54.0798 55.76 32.3198 55.76C10.5598 55.76 -0.000195086 42.88 -0.000195086 27.84C-0.000195086 12.88 10.5598 3.71933e-05 32.3198 3.71933e-05ZM32.3198 44.32C45.9198 44.32 51.9998 36.56 51.9998 27.84C51.9998 19.2 45.9198 11.44 32.3198 11.44C17.7598 11.44 12.6398 19.2 12.6398 27.84C12.6398 36.56 17.7598 44.32 32.3198 44.32ZM119.575 12.16H85.0154V23.84H116.535V35.28H85.0154V55.04H72.6154V0.720037H119.575V12.16Z" fill="white"/>
</svg>
