<svg width="243" height="56" viewBox="0 0 243 56" fill="none" xmlns="http://www.w3.org/2000/svg">
<path d="M36.2402 0.720037C47.5202 0.720037 53.0402 8.24004 53.0402 17.52C53.0402 26.8 47.5202 34.32 36.2402 34.32H12.4002V55.04H0.000195503V0.720037H36.2402ZM35.2802 22.88C39.2002 22.88 40.6402 20.48 40.6402 17.52C40.6402 14.56 39.2002 12.16 35.2802 12.16H12.4002V22.88H35.2802ZM90.9546 3.71933e-05C112.715 3.71933e-05 123.275 12.88 123.275 27.84C123.275 42.88 112.715 55.76 90.9546 55.76C69.1946 55.76 58.6346 42.88 58.6346 27.84C58.6346 12.88 69.1946 3.71933e-05 90.9546 3.71933e-05ZM90.9546 44.32C104.555 44.32 110.635 36.56 110.635 27.84C110.635 19.2 104.555 11.44 90.9546 11.44C76.3946 11.44 71.2746 19.2 71.2746 27.84C71.2746 36.56 76.3946 44.32 90.9546 44.32ZM185.81 55.04H170.45L152.29 34.24H143.65V55.04H131.25V0.640038H167.49C178.69 0.640038 184.29 8.16004 184.29 17.44C184.29 26.72 178.69 34.24 167.49 34.24H167.25L185.81 55.04ZM143.65 12V22.8H166.45C170.45 22.8 171.89 20.4 171.89 17.44C171.89 14.48 170.45 12 166.45 12H143.65ZM242.456 0.720037V12.16H221.816V55.04H209.416V12.16H188.776V0.720037H242.456Z" fill="white"/>
</svg>
